<svg width="134" height="52" viewBox="0 0 134 52" fill="none" xmlns="http://www.w3.org/2000/svg">
<path fill-rule="evenodd" clip-rule="evenodd" d="M34.9205 41.1533C34.3512 41.1533 33.9574 41.1533 33.6313 41.1119V37.1387H34.7663C36.4255 37.1387 37.7562 37.7022 37.7562 39.1048C37.7562 40.5887 36.4255 41.1533 34.9205 41.1533V41.1533ZM33.6313 31.949H35.0497C36.556 31.949 37.3557 32.4594 37.3557 33.528C37.3557 34.5716 36.4914 34.8303 34.7224 34.8303H33.6313V31.949ZM18.8382 29.2771L19.6947 31.9516H23.1893V43.3695H26.5096V31.9516H30.3341V43.3071C31.0759 43.4133 32.2987 43.5161 33.9354 43.5161C36.8607 43.5161 38.6516 43.0571 39.722 42.2414C40.6376 41.5313 41.2502 40.5269 41.2502 39.2299C41.2502 37.4296 40.0927 36.2127 38.4115 35.7934V35.7531C40.0701 35.1458 40.7473 34.0608 40.7473 32.8287C40.7473 31.5311 40.0268 30.5688 39.0003 30.0461C37.908 29.4388 36.6827 29.2771 34.6523 29.2771H18.8382ZM16.8144 37.3695L15.8976 34.3797C15.6349 33.5405 15.3734 32.4976 15.1546 31.6596H15.1119C14.8924 32.4976 14.6754 33.5615 14.4353 34.3797L13.5605 37.3695H16.8144ZM13.0815 39.751L12.0325 43.3686H8.60547L13.0815 29.2761H17.4467L22.0318 43.3686H18.4299L17.2943 39.751H13.0815Z" fill="#EAF0F2"/>
<path fill-rule="evenodd" clip-rule="evenodd" d="M125.723 29.239L126.154 30.3976L126.589 29.239H127.069V30.8577H126.758V29.5515L126.291 30.8577H126.02L125.549 29.5515V30.8577H125.24V29.239H125.723ZM123.512 29.5094V29.239H124.952V29.5094H124.4V30.8577H124.064V29.5094H123.512ZM56.7825 29.5122H58.5802L53.4037 43.2689H51.7536L46.607 29.5122H48.3747L51.675 38.4134C52.0547 39.4359 52.3558 40.4303 52.5789 41.3962C52.8142 40.3795 53.1221 39.367 53.5018 38.3567L56.7825 29.5122ZM59.8551 37.1248C59.9466 36.1712 60.2495 35.4249 60.7634 34.8848C61.2772 34.3458 61.9667 34.076 62.831 34.076C63.682 34.076 64.3373 34.3376 64.7957 34.8614C65.2541 35.3852 65.4833 36.1397 65.4833 37.1248H59.8551ZM58.1264 38.197C58.1264 39.8472 58.5861 41.136 59.5065 42.0645C60.4264 42.9929 61.6821 43.4566 63.273 43.4566C63.9996 43.4566 64.6202 43.4052 65.1341 43.3019C65.6485 43.1979 66.1935 43.0274 66.7695 42.7886V41.3958C65.6369 41.8607 64.491 42.0931 63.3322 42.0931C62.2319 42.0931 61.3791 41.7789 60.7732 41.1517C60.1673 40.5246 59.8485 39.6054 59.8156 38.3949H67.2316V37.4063C67.2316 36.0136 66.8384 34.8924 66.0527 34.0427C65.2669 33.1925 64.1996 32.768 62.8506 32.768C61.4102 32.768 60.2624 33.2573 59.4084 34.2354C58.5531 35.2141 58.1264 36.535 58.1264 38.197ZM76.4323 43.2686V36.5975C76.4323 35.7572 76.2324 35.1295 75.8331 34.716C75.4339 34.302 74.8085 34.0941 73.9569 34.0941C72.831 34.0941 72.0057 34.3861 71.482 34.9695C70.9584 35.5528 70.6963 36.5164 70.6963 37.8577V43.2686H69.0657V32.956H70.3915L70.6567 34.3674H70.7353C71.0694 33.8594 71.5375 33.4658 72.1398 33.1861C72.7426 32.9075 73.4138 32.768 74.1538 32.768C75.4503 32.768 76.4256 33.067 77.0803 33.6667C77.7356 34.2652 78.0629 35.2235 78.0629 36.5409V43.2686H76.4323ZM85.4452 41.9799C85.288 42.0237 85.0752 42.0658 84.807 42.1067C84.5382 42.1475 84.2602 42.168 83.9719 42.168C83.4349 42.168 83.0124 42.0015 82.7046 41.6693C82.3974 41.3364 82.2432 40.8599 82.2432 40.2386V34.1696H85.3666V32.9562H82.2432V30.566H81.3002L80.6126 32.7675L79.0704 33.4169V34.1696H80.6126V40.3046C80.6126 42.4062 81.6537 43.4567 83.736 43.4567C84.0109 43.4567 84.3206 43.4299 84.6644 43.3767C85.0082 43.3236 85.2685 43.2559 85.4452 43.1747V41.9799ZM88.3339 32.9561V39.6464C88.3339 40.4867 88.5338 41.1144 88.9331 41.5285C89.3324 41.9425 89.9578 42.1486 90.8094 42.1486C91.9352 42.1486 92.7588 41.8543 93.2793 41.2651C93.7999 40.6753 94.0602 39.7118 94.0602 38.3757V32.9561H95.6908V43.2686H94.3449L94.1096 41.8853H94.0212C93.6871 42.3939 93.2233 42.7828 92.6314 43.052C92.0383 43.3218 91.3622 43.4567 90.6027 43.4567C89.2934 43.4567 88.3126 43.1594 87.6609 42.5626C87.0093 41.9676 86.6838 41.014 86.6838 39.7025V32.9561H88.3339ZM104.09 34.3298L104.316 32.8805C103.936 32.8051 103.507 32.7678 103.029 32.7678C102.355 32.7678 101.736 32.9499 101.173 33.3137C100.61 33.6775 100.128 34.1949 99.7291 34.8665H99.6505L99.4639 32.9558H98.118V43.2683H99.7486V37.736C99.7486 36.7258 100.058 35.8825 100.677 35.2052C101.296 34.5278 102.041 34.1891 102.912 34.1891C103.252 34.1891 103.645 34.2358 104.09 34.3298ZM107.309 34.8848C106.795 35.4249 106.492 36.1712 106.401 37.1248H112.029C112.029 36.1397 111.8 35.3852 111.342 34.8614C110.883 34.3376 110.228 34.076 109.377 34.076C108.513 34.076 107.823 34.3458 107.309 34.8848ZM106.052 42.0645C105.132 41.136 104.672 39.8472 104.672 38.197C104.672 36.535 105.099 35.2141 105.954 34.2354C106.808 33.2573 107.956 32.768 109.397 32.768C110.746 32.768 111.813 33.1925 112.599 34.0427C113.384 34.8924 113.778 36.0136 113.778 37.4063V38.3949H106.362C106.394 39.6054 106.713 40.5246 107.319 41.1517C107.925 41.7789 108.778 42.0931 109.878 42.0931C111.037 42.0931 112.183 41.8607 113.315 41.3958V42.7886C112.739 43.0274 112.195 43.1979 111.68 43.3019C111.166 43.4052 110.546 43.4566 109.819 43.4566C108.228 43.4566 106.972 42.9929 106.052 42.0645ZM118.392 43.4572C119.741 43.4572 120.788 43.1967 121.535 42.6759C122.282 42.1556 122.655 41.4157 122.655 40.4551C122.655 39.7719 122.43 39.2037 121.982 38.7523C121.534 38.3009 120.67 37.8524 119.393 37.4063C118.464 37.0746 117.835 36.82 117.508 36.6448C117.181 36.4691 116.943 36.2839 116.795 36.0889C116.649 35.895 116.575 35.6597 116.575 35.3835C116.575 34.9759 116.771 34.6559 117.164 34.4241C117.557 34.1916 118.14 34.076 118.912 34.076C119.79 34.076 120.769 34.2892 121.849 34.716L122.429 33.4454C121.321 32.994 120.189 32.768 119.03 32.768C117.786 32.768 116.807 33.0109 116.093 33.4973C115.379 33.9832 115.023 34.6471 115.023 35.4868C115.023 35.9581 115.126 36.3622 115.332 36.7009C115.538 37.0396 115.852 37.3426 116.275 37.6089C116.697 37.8758 117.41 38.1876 118.411 38.545C119.466 38.9345 120.174 39.2714 120.538 39.557C120.901 39.8419 121.084 40.1859 121.084 40.5877C121.084 41.1208 120.854 41.5167 120.396 41.7777C119.937 42.0376 119.282 42.1684 118.431 42.1684C117.881 42.1684 117.309 42.096 116.717 41.9518C116.124 41.8069 115.57 41.6101 115.052 41.3585V42.8078C115.851 43.2405 116.964 43.4572 118.392 43.4572Z" fill="#EAF0F2"/>
<path fill-rule="evenodd" clip-rule="evenodd" d="M49.8485 17.1488C49.429 17.7893 48.8015 18.1096 47.966 18.1096C47.1817 18.1096 46.5715 17.8277 46.1355 17.2638C45.6996 16.7 45.4816 15.8983 45.4816 14.8588C45.4816 13.8194 45.7005 13.012 46.1383 12.4366C46.5761 11.8612 47.1853 11.5736 47.966 11.5736C48.7796 11.5736 49.4034 11.8843 49.8376 12.5056H49.9087L49.8704 12.0511L49.8485 11.6081V9.04199H50.7569V17.9945H50.0182L49.8978 17.1488H49.8485ZM9.90819 17.9945V14.6862H10.8494C11.8782 14.6862 12.669 14.457 13.2217 13.9987C13.7744 13.5403 14.0507 12.8853 14.0507 12.0338C14.0507 10.3998 13.0511 9.58279 11.0519 9.58279H8.9779V17.9945H9.90819ZM10.7455 13.8462H9.9082V10.4286H10.9479C11.6812 10.4286 12.2212 10.5648 12.5677 10.8371C12.9143 11.1094 13.0876 11.5237 13.0876 12.0799C13.0876 12.6974 12.9034 13.1462 12.5349 13.4262C12.1664 13.7062 11.57 13.8462 10.7455 13.8462ZM19.6997 17.2436C19.2072 17.8209 18.5268 18.1095 17.6586 18.1095C17.1223 18.1095 16.6462 17.9772 16.2303 17.7125C15.8144 17.4478 15.4933 17.0681 15.2672 16.5733C15.041 16.0785 14.9279 15.4993 14.9279 14.8357C14.9279 13.8077 15.1723 13.007 15.6612 12.4336C16.15 11.8602 16.8286 11.5734 17.6969 11.5734C18.536 11.5734 19.2027 11.8669 19.697 12.4537C20.1913 13.0406 20.4385 13.8346 20.4385 14.8357C20.4385 15.8637 20.1922 16.6663 19.6997 17.2436ZM17.6804 17.3098C17.0857 17.3098 16.6352 17.0988 16.3287 16.6769C16.0223 16.255 15.869 15.6413 15.869 14.8358C15.869 14.0226 16.0204 13.4108 16.3232 13.0004C16.626 12.59 17.0748 12.3847 17.6694 12.3847C18.2714 12.3847 18.7265 12.5928 19.0348 13.009C19.343 13.4252 19.4972 14.0341 19.4972 14.8358C19.4972 15.6451 19.343 16.2598 19.0348 16.6798C18.7265 17.0998 18.275 17.3098 17.6804 17.3098ZM24.4621 14.3065L23.3294 17.9946H22.2787L20.6424 11.6887H21.5946C21.9813 13.2728 22.2759 14.4791 22.4784 15.3076C22.6809 16.1362 22.7967 16.6943 22.8259 16.9819H22.8697C22.9098 16.7633 22.9746 16.4804 23.0639 16.1333C23.1533 15.7861 23.2309 15.5109 23.2965 15.3076L24.3965 11.6887H25.3815L26.4541 15.3076C26.6584 15.9674 26.797 16.5216 26.8699 16.9704H26.9137C26.9283 16.8323 26.9675 16.6195 27.0314 16.3318C27.0952 16.0441 27.4756 14.4964 28.1724 11.6887H29.1136L27.4555 17.9946H26.3774L25.2775 14.295C25.2082 14.0687 25.0787 13.5547 24.889 12.7531H24.8452C24.6993 13.4243 24.5716 13.9421 24.4621 14.3065ZM32.4039 18.1095C32.8088 18.1095 33.1545 18.0778 33.4409 18.0146C33.7273 17.9513 34.031 17.8467 34.352 17.701V16.8495C33.7209 17.1333 33.0825 17.2752 32.4367 17.2752C31.8238 17.2752 31.3487 17.0834 31.0112 16.6999C30.6737 16.3163 30.4959 15.7544 30.4776 15.0141H34.6092V14.4099C34.6092 13.5584 34.3904 12.8728 33.9526 12.353C33.5148 11.8333 32.9201 11.5734 32.1686 11.5734C31.366 11.5734 30.7266 11.8726 30.2505 12.471C29.7744 13.0694 29.5364 13.8768 29.5364 14.8932C29.5364 15.902 29.7927 16.6903 30.3053 17.258C30.8178 17.8256 31.5174 18.1095 32.4039 18.1095ZM30.4996 14.2375H33.6352C33.6352 13.6353 33.5075 13.174 33.2522 12.8537C32.9968 12.5335 32.632 12.3733 32.1577 12.3733C31.6761 12.3733 31.2922 12.5383 31.0058 12.8681C30.7194 13.198 30.5507 13.6545 30.4996 14.2375ZM36.7395 17.9944V14.6113C36.7395 13.9938 36.9118 13.4779 37.2566 13.0636C37.6014 12.6494 38.0163 12.4422 38.5016 12.4422C38.6913 12.4422 38.9102 12.471 39.1582 12.5285L39.2841 11.6425C39.0725 11.5965 38.8335 11.5734 38.5672 11.5734C38.1915 11.5734 37.8467 11.6847 37.533 11.9071C37.2192 12.1296 36.9511 12.4461 36.7285 12.8565H36.6847L36.5808 11.6885H35.8311V17.9944H36.7395ZM43.4253 18.0146C43.1389 18.0778 42.7932 18.1095 42.3883 18.1095C41.5018 18.1095 40.8022 17.8256 40.2896 17.258C39.7771 16.6903 39.5208 15.902 39.5208 14.8932C39.5208 13.8768 39.7588 13.0694 40.2349 12.471C40.711 11.8726 41.3503 11.5734 42.153 11.5734C42.9045 11.5734 43.4991 11.8333 43.9369 12.353C44.3747 12.8728 44.5936 13.5584 44.5936 14.4099V15.0141H40.462C40.4802 15.7544 40.6581 16.3163 40.9956 16.6999C41.333 17.0834 41.8082 17.2752 42.4211 17.2752C43.0668 17.2752 43.7053 17.1333 44.3364 16.8495V17.701C44.0154 17.8467 43.7117 17.9513 43.4253 18.0146ZM43.6196 14.2375H40.484C40.5351 13.6545 40.7038 13.198 40.9902 12.8681C41.2766 12.5383 41.6605 12.3733 42.1421 12.3733C42.6164 12.3733 42.9812 12.5335 43.2366 12.8537C43.4919 13.174 43.6196 13.6353 43.6196 14.2375ZM48.081 17.3099C47.5374 17.3099 47.1252 17.1047 46.8443 16.6943C46.5634 16.2838 46.4229 15.6759 46.4229 14.8704C46.4229 14.0764 46.5643 13.4617 46.847 13.0264C47.1297 12.591 47.5374 12.3733 48.0701 12.3733C48.6903 12.3733 49.1417 12.5642 49.4245 12.9458C49.7072 13.3275 49.8486 13.9651 49.8486 14.8589V15.0602C49.8486 15.8504 49.709 16.4229 49.4299 16.7777C49.1509 17.1325 48.7012 17.3099 48.081 17.3099ZM59.562 17.2495C59.1224 17.8229 58.5122 18.1096 57.7315 18.1096C57.3412 18.1096 56.9845 18.0339 56.6617 17.8823C56.3388 17.7308 56.0679 17.4978 55.849 17.1833H55.7834L55.5918 17.9945H54.9406V9.04199H55.849V11.2168C55.849 11.704 55.8344 12.1412 55.8053 12.5287H55.849C56.2722 11.8996 56.8997 11.5851 57.7315 11.5851C58.5195 11.5851 59.1315 11.868 59.5675 12.4337C60.0034 12.9995 60.2214 13.8002 60.2214 14.8358C60.2214 15.8715 60.0016 16.676 59.562 17.2495ZM57.6223 17.3098C57.0021 17.3098 56.5515 17.119 56.2706 16.7373C55.9897 16.3557 55.8492 15.7218 55.8492 14.8358C55.8492 13.9497 55.986 13.3197 56.2597 12.9457C56.5333 12.5717 56.9802 12.3847 57.6004 12.3847C58.1732 12.3847 58.5963 12.5861 58.87 12.9889C59.1436 13.3916 59.2804 14.0034 59.2804 14.8243C59.2804 15.6259 59.1436 16.2406 58.87 16.6683C58.5963 17.096 58.1805 17.3098 57.6223 17.3098ZM62.4584 20.3794C62.1172 20.6767 61.6986 20.8253 61.2025 20.8253C60.9252 20.8253 60.6516 20.7927 60.3816 20.7275V19.9623C60.5823 20.0083 60.8066 20.0313 61.0547 20.0313C61.6786 20.0313 62.1236 19.6631 62.3899 18.9266L62.7238 18.0291L60.305 11.6887H61.2791L62.5924 15.2846C62.8806 16.1055 63.0594 16.6981 63.1287 17.0625H63.1725C63.2199 16.8669 63.3193 16.5322 63.4707 16.0585C63.6221 15.5848 64.1174 14.1282 64.9565 11.6887H65.9305L63.3531 18.8691C63.0977 19.5787 62.7995 20.0821 62.4584 20.3794Z" fill="#EAF0F2"/>
<rect x="1.25" y="1" width="132" height="50.25" rx="3.5" stroke="#EAF0F2"/>
</svg>
